<svg xmlns="http://www.w3.org/2000/svg" viewBox="0 0 64 64">
<path fill="#ea4335" d="M16.63,32.15l9.5-5.48a4.66,4.66,0,0,0-4.69-8L5.11,28.13Z"/>
<path fill="#4285f4" d="M23.79,46.34a4.68,4.68,0,0,0,4-2.35,4.58,4.58,0,0,0-1.68-6.37L9.69,28.13a4.58,4.58,0,0,0-6.37,1.68A4.58,4.58,0,0,0,5,36.18l16.44,9.51A4.69,4.69,0,0,0,23.79,46.34Z"/>
<path fill="#fbbc04" d="M40.21,46.34a4.81,4.81,0,0,0,2.35-.67L59,36.17,47.48,32l-9.61,5.59A4.61,4.61,0,0,0,36.19,44,4.56,4.56,0,0,0,40.21,46.34Z"/>
<path fill="#0f9d58" d="M56.65,36.85a4.73,4.73,0,0,0,4-2.35A4.58,4.58,0,0,0,59,28.13L42.57,18.62a4.66,4.66,0,1,0-4.69,8.05l16.43,9.51A4.15,4.15,0,0,0,56.65,36.85Z"/>
</svg>
